<svg id="n5qiCgzgM" viewBox="0 0 230 67.98431231620042" height="67.98431231620042" width="230" style="width: 230px; height: 67.9843px; position: absolute; top: 50%; left: 50%; z-index: 0; cursor: pointer; transform: translate(-50%, -50%) scale(0.910435);"><defs id="SvgjsDefs1161"></defs><g id="SvgjsG1162" featurekey="symbolFeature-0" transform="matrix(0.7407406709703355,0,0,0.7407406709703355,-7.03703708064354,-2.7037033548516773)" fill="#f2fcfc"><g xmlns="http://www.w3.org/2000/svg"><path d="M66.4,30c-4.1-4.4-10-6.8-16.5-6.8S37.6,25.6,33.4,30c-4,4.2-6.2,10.1-6.2,16.5c0,0.5,0,1.1,0.1,1.6c0,0.1,0,0.2,0,0.3   s0,0.2,0,0.3C27.9,55.4,31,60,33.9,64c2.5,3.5,4.6,6.6,4.6,10.3c0,2,1.5,3.8,4.5,5c2.1,0.9,4.8,1.5,7,1.5c2.2,0,4.9-0.6,7-1.5   c2.9-1.2,4.5-3,4.5-5c0-3.8,2.1-6.8,4.6-10.3c3.1-4.5,6.6-9.5,6.6-17.4C72.6,40.1,70.4,34.3,66.4,30z M48.7,49.6   c-0.6-0.2-1.2-0.7-1.6-1.2c-0.1-0.1-0.1-0.2-0.2-0.3c-0.2-0.3-0.3-0.7-0.4-1.1c-0.1-0.6-0.1-1.2,0.1-1.7c0.1-0.1,0.1-0.2,0.1-0.4   c0.5-1,1.4-1.8,2.6-2c0.1,0,0.3,0,0.4,0h0.1c0,0,0,0,0.1,0c1.7,0,3.2,1.2,3.5,2.9c0.1,0.7,0,1.4-0.3,2.1C53,48,53,48.1,53,48.2   c-0.5,0.9-1.4,1.5-2.4,1.7h-0.1c-0.2,0-0.3,0-0.5,0l0,0C49.5,49.8,49.1,49.8,48.7,49.6L48.7,49.6z M54.1,50.2   c1.1,1.2,2.2,2.6,3.3,4.1c3.1,4.5,4.3,7.7,4.3,8.8c-1-0.4-3.7-2.5-6.8-7c-1.1-1.5-2-3.1-2.7-4.5C52.9,51.3,53.6,50.8,54.1,50.2z    M53.4,41.8c-0.6-0.5-1.4-0.8-2.2-1c0.5-1.5,1.1-3.2,1.9-4.9c2.3-5,4.6-7.6,5.5-8.1c0.2,1.1-0.4,4.5-2.7,9.4   C55.1,38.9,54.2,40.5,53.4,41.8z M35,31.5c3.8-4,8.9-6.1,14.9-6.1c2.4,0,4.7,0.3,6.8,1c-0.5,0.4-1,1-1.6,1.7   c-1.4,1.7-2.8,4.2-4.1,6.9c-0.9,2-1.7,4-2.2,5.8c-1.5,0.3-2.8,1.1-3.6,2.3c-0.1,0.1-0.2,0.3-0.3,0.4c-1.8-0.1-3.9-0.1-6.1,0.1   c-3,0.3-5.8,0.8-7.9,1.5c-0.6,0.2-1.2,0.4-1.6,0.7C29.6,40.2,31.5,35.2,35,31.5z M44.3,47.3c0,0.3,0.1,0.5,0.2,0.8   c-1.5,0.3-3.3,0.6-5.1,0.8c-5.5,0.5-8.9-0.2-9.8-0.7c0.8-0.7,4-1.9,9.5-2.4c1.8-0.2,3.6-0.2,5.2-0.1C44.2,46.2,44.2,46.8,44.3,47.3   z M40.6,74.3c0-4.5-2.4-7.9-5-11.6c-2.4-3.5-5-7.1-5.9-12.1c0.5,0.2,1.1,0.3,1.8,0.4c1.2,0.2,2.7,0.3,4.2,0.3   c1.2,0,2.5-0.1,3.8-0.2c2.2-0.2,4.3-0.5,6.1-1c0.5,0.5,1,1,1.7,1.3v26.8c-1.2-0.2-2.5-0.6-3.5-1C42.8,76.9,40.6,75.8,40.6,74.3z    M49.5,78.6V52.1c0.1,0,0.3,0,0.4,0l0,0H50c0.1,0.2,0.2,0.5,0.4,0.7v25.7c-0.2,0-0.3,0-0.4,0C49.9,78.5,49.6,78.6,49.5,78.6z    M59.2,74.3c0,1.5-2.2,2.6-3.1,3c-1.1,0.5-2.3,0.8-3.5,1V56.5c0.2,0.3,0.4,0.6,0.6,0.9c1.7,2.5,3.6,4.6,5.2,6.1   c1.5,1.3,2.7,2,3.6,2c0.1,0,0.2,0,0.3,0C60.6,68.1,59.2,70.9,59.2,74.3z M64.2,62.7c-0.1,0.1-0.2,0.3-0.3,0.4c0-0.8-0.3-1.8-0.7-3   c-0.8-2.1-2.2-4.5-3.9-7c-1.3-1.8-2.6-3.5-3.9-4.8c0.3-0.9,0.4-1.8,0.2-2.8c-0.1-0.7-0.3-1.3-0.7-1.8c1-1.5,2.1-3.4,3-5.4   c1.3-2.7,2.2-5.4,2.6-7.6c0.2-0.9,0.3-1.7,0.3-2.3c1.5,0.9,2.8,2,4,3.3c3.6,3.8,5.6,9.2,5.6,15C70.4,53.7,67.2,58.3,64.2,62.7z"></path><path d="M58.9,79.6c-2.5,1.8-5.6,2.8-9,2.8c-3.4,0-6.5-1-9.1-2.8c-0.5-0.4-1.2-0.2-1.5,0.2c-0.4,0.5-0.2,1.2,0.2,1.5   c2.9,2.1,6.5,3.3,10.3,3.3s7.4-1.1,10.3-3.2c0.5-0.4,0.6-1,0.2-1.5C60.1,79.4,59.4,79.3,58.9,79.6z"></path><path d="M58.9,83.5c-2.3,1.7-5.3,2.5-9,2.5s-6.7-0.8-9.1-2.5c-0.5-0.4-1.2-0.2-1.5,0.2c-0.4,0.5-0.2,1.2,0.2,1.5   c2.7,2,6.1,3,10.3,3s7.5-1,10.3-2.9c0.5-0.4,0.6-1,0.2-1.5C60.1,83.2,59.4,83.1,58.9,83.5z"></path><path d="M58.9,87.4c-2.7,1.9-6.1,2.2-9,2.2c-2.9,0-6.3-0.3-9.1-2.3c-0.5-0.4-1.2-0.2-1.5,0.2c-0.4,0.5-0.2,1.2,0.2,1.5   c1.9,1.4,4.1,2.1,6.2,2.4c0.3,2,2,3.6,4.1,3.6c2.1,0,3.8-1.6,4.1-3.6c2.1-0.3,4.2-1,6.1-2.4c0.5-0.4,0.6-1,0.2-1.5   C60.1,87.1,59.4,87,58.9,87.4z M49.9,92.9c-0.8,0-1.5-0.5-1.8-1.2c0.6,0,1.2,0,1.8,0s1.2,0,1.8,0C51.5,92.4,50.8,92.9,49.9,92.9z"></path><path d="M35.5,36c0.2,0.2,0.4,0.2,0.7,0.2c0.3,0,0.6-0.1,0.9-0.4c2.7-3.4,5.7-5.3,9.5-5.9c0.6-0.1,1-0.7,0.9-1.3   c-0.1-0.6-0.7-1-1.3-0.9c-4.4,0.8-7.8,2.9-10.9,6.7C35,34.9,35.1,35.6,35.5,36z"></path><path d="M48.4,17.5c0,0.4,0.2,0.8,0.4,1c0.3,0.3,0.6,0.4,1,0.4c0.4,0,0.8-0.2,1-0.4c0.3-0.3,0.4-0.6,0.4-1c0-0.4-0.2-0.8-0.4-1   s-0.4-0.3-0.6-0.4c0.6-0.2,1-0.7,1-1.4c0-0.6-0.4-1.2-1-1.4c0.6-0.2,1-0.7,1-1.4c0-0.6-0.4-1.2-1-1.4c0.6-0.2,1-0.7,1-1.4   c0-0.6-0.4-1.2-1-1.4c0.2-0.1,0.4-0.2,0.6-0.4c0.3-0.3,0.4-0.6,0.4-1s-0.2-0.8-0.4-1C50.6,5.2,50.2,5,49.9,5c-0.4,0-0.8,0.2-1,0.4   c-0.3,0.3-0.4,0.6-0.4,1s0.2,0.8,0.4,1s0.4,0.3,0.6,0.4c-0.6,0.2-1,0.7-1,1.4c0,0.6,0.4,1.2,1,1.4c-0.6,0.2-1,0.7-1,1.4   c0,0.6,0.4,1.2,1,1.4c-0.6,0.2-1,0.7-1,1.4c0,0.6,0.4,1.2,1,1.4c-0.2,0.1-0.4,0.2-0.6,0.4C48.6,16.7,48.4,17.1,48.4,17.5z"></path><path d="M27.7,14.6c0.1,0,0.3,0,0.4-0.1c-0.4,0.5-0.4,1.2-0.1,1.7c0.4,0.5,1,0.8,1.6,0.6c-0.4,0.5-0.4,1.2-0.1,1.7   c0.4,0.5,1,0.8,1.6,0.6c-0.4,0.5-0.4,1.2-0.1,1.7c0.3,0.4,0.7,0.6,1.2,0.6c0.1,0,0.3,0,0.4-0.1c-0.2,0.3-0.3,0.6-0.3,0.9   c0,0.4,0.2,0.8,0.4,1c0.3,0.3,0.6,0.4,1,0.4c0.4,0,0.8-0.2,1-0.4c0.3-0.3,0.4-0.6,0.4-1c0-0.4-0.2-0.8-0.4-1   c-0.3-0.3-0.6-0.4-1-0.4c-0.1,0-0.3,0-0.4,0.1c0.4-0.5,0.4-1.2,0.1-1.7c-0.4-0.5-1-0.8-1.6-0.6c0.4-0.5,0.4-1.2,0.1-1.7   c-0.4-0.5-1-0.8-1.6-0.6c0.4-0.5,0.4-1.2,0.1-1.7c-0.4-0.5-1-0.8-1.6-0.6c0.2-0.3,0.3-0.6,0.3-0.9c0-0.4-0.2-0.8-0.4-1   c-0.3-0.3-0.6-0.4-1-0.4c-0.4,0-0.8,0.2-1,0.4c-0.3,0.3-0.4,0.6-0.4,1c0,0.4,0.2,0.8,0.4,1C27,14.5,27.3,14.6,27.7,14.6z"></path><path d="M13.1,32.6c0.4,0,0.8-0.2,1-0.4c0,0,0-0.1,0.1-0.1c0,0.6,0.3,1.2,0.9,1.5c0.6,0.2,1.3,0.1,1.7-0.4c0,0.6,0.3,1.2,0.9,1.4   c0.6,0.2,1.3,0.1,1.7-0.4c0,0.6,0.3,1.2,0.9,1.4c0.2,0.1,0.4,0.1,0.6,0.1c0.4,0,0.8-0.2,1.1-0.5v0.1c0,0.4,0.2,0.8,0.4,1   c0.3,0.3,0.6,0.4,1,0.4c0.4,0,0.8-0.2,1-0.4c0.3-0.3,0.4-0.6,0.4-1s-0.2-0.8-0.4-1c-0.3-0.3-0.6-0.4-1-0.4c-0.4,0-0.8,0.2-1,0.4   c0,0,0,0.1-0.1,0.1c0-0.6-0.3-1.2-0.9-1.5c-0.6-0.2-1.3-0.1-1.7,0.4c0-0.6-0.3-1.2-0.9-1.4c-0.6-0.2-1.3-0.1-1.7,0.4   c0-0.6-0.3-1.2-0.9-1.4c-0.6-0.2-1.3-0.1-1.7,0.4v-0.1c0-0.4-0.2-0.8-0.4-1c-0.3-0.3-0.6-0.4-1-0.4c-0.4,0-0.8,0.2-1,0.4   c-0.3,0.3-0.4,0.6-0.4,1c0,0.4,0.2,0.8,0.4,1S12.7,32.6,13.1,32.6z"></path><path d="M20.6,53.1c0.3,0.3,0.6,0.4,1,0.4c0.4,0,0.8-0.2,1-0.4c0.3-0.3,0.4-0.6,0.4-1c0-0.4-0.2-0.8-0.4-1c-0.3-0.3-0.6-0.4-1-0.4   c-0.4,0-0.8,0.2-1,0.4c-0.2,0.2-0.4,0.5-0.4,0.9c-0.3-0.5-0.9-0.8-1.5-0.7c-0.6,0.1-1.1,0.6-1.2,1.2c-0.3-0.5-0.9-0.8-1.5-0.7   c-0.6,0.1-1.1,0.6-1.2,1.2c-0.3-0.5-0.9-0.8-1.5-0.7s-1.1,0.6-1.2,1.2c-0.1-0.1-0.1-0.2-0.2-0.3c-0.3-0.3-0.6-0.4-1-0.4   c-0.4,0-0.8,0.2-1,0.4c-0.3,0.3-0.4,0.6-0.4,1c0,0.4,0.2,0.8,0.4,1c0.3,0.3,0.6,0.4,1,0.4c0.4,0,0.8-0.2,1-0.4   c0.2-0.2,0.4-0.5,0.4-0.9c0.3,0.5,0.7,0.7,1.3,0.7c0.1,0,0.2,0,0.3,0c0.6-0.1,1.1-0.6,1.2-1.2c0.3,0.5,0.9,0.8,1.5,0.7   c0.6-0.1,1.1-0.6,1.2-1.2c0.3,0.5,0.9,0.8,1.5,0.7s1.1-0.6,1.2-1.3C20.4,52.9,20.5,53,20.6,53.1z"></path><path d="M29.5,65.4c-0.4,0-0.8,0.2-1,0.4c-0.3,0.3-0.4,0.6-0.4,1c0,0.2,0.1,0.5,0.2,0.7c-0.5-0.3-1.2-0.2-1.7,0.3   c-0.5,0.5-0.5,1.1-0.3,1.7c-0.5-0.3-1.2-0.2-1.7,0.3c-0.5,0.5-0.5,1.1-0.3,1.7c-0.5-0.3-1.2-0.2-1.7,0.3c-0.5,0.5-0.5,1.1-0.3,1.7   c-0.2-0.1-0.4-0.2-0.7-0.2c-0.4,0-0.8,0.2-1,0.4c-0.2,0.2-0.4,0.6-0.4,1s0.2,0.8,0.4,1c0.3,0.3,0.6,0.4,1,0.4c0.4,0,0.8-0.2,1-0.4   c0.3-0.3,0.4-0.6,0.4-1c0-0.2-0.1-0.5-0.2-0.7c0.2,0.1,0.4,0.2,0.7,0.2c0.4,0,0.7-0.1,1-0.4c0.5-0.5,0.5-1.1,0.3-1.7   c0.5,0.3,1.2,0.2,1.7-0.3c0.5-0.5,0.5-1.1,0.3-1.7c0.5,0.3,1.2,0.2,1.7-0.3s0.5-1.1,0.3-1.7c0.2,0.1,0.4,0.2,0.7,0.2   c0.4,0,0.8-0.2,1-0.4c0.3-0.3,0.4-0.6,0.4-1s-0.2-0.8-0.4-1C30.3,65.5,29.9,65.4,29.5,65.4z"></path><path d="M66,23.8c0.4,0,0.8-0.2,1-0.4c0.3-0.3,0.4-0.6,0.4-1c0-0.3-0.1-0.6-0.3-0.9c0.1,0,0.3,0.1,0.4,0.1c0.5,0,0.9-0.2,1.2-0.6   c0.4-0.5,0.3-1.2-0.1-1.7c0.6,0.2,1.2-0.1,1.6-0.6c0.4-0.5,0.3-1.2-0.1-1.7c0.6,0.2,1.2-0.1,1.6-0.6c0.4-0.5,0.3-1.2-0.1-1.7   c0.1,0,0.3,0.1,0.4,0.1c0.4,0,0.8-0.2,1-0.4c0.3-0.3,0.4-0.6,0.4-1c0-0.4-0.2-0.8-0.4-1c-0.3-0.3-0.6-0.4-1-0.4s-0.8,0.2-1,0.4   c-0.3,0.3-0.4,0.6-0.4,1c0,0.3,0.1,0.6,0.3,0.9c-0.6-0.2-1.2,0.1-1.6,0.6c-0.4,0.5-0.3,1.2,0.1,1.7c-0.6-0.2-1.2,0.1-1.6,0.6   c-0.4,0.5-0.3,1.2,0.1,1.7c-0.6-0.2-1.2,0.1-1.6,0.6c-0.4,0.5-0.3,1.2,0.1,1.7c-0.1,0-0.3-0.1-0.4-0.1c-0.4,0-0.8,0.2-1,0.4   c-0.3,0.3-0.4,0.6-0.4,1c0,0.4,0.2,0.8,0.4,1C65.2,23.7,65.6,23.8,66,23.8z"></path><path d="M76.6,36.8c0.4,0,0.8-0.2,1-0.4c0.3-0.3,0.4-0.6,0.4-1v-0.1c0.3,0.3,0.7,0.5,1.1,0.5c0.2,0,0.4,0,0.6-0.1   c0.6-0.2,0.9-0.8,0.9-1.4c0.4,0.5,1.1,0.6,1.7,0.4c0.6-0.2,0.9-0.8,0.9-1.4c0.4,0.5,1.1,0.6,1.7,0.4c0.6-0.2,0.9-0.8,0.9-1.5   c0,0,0,0.1,0.1,0.1c0.3,0.3,0.6,0.4,1,0.4c0.4,0,0.8-0.2,1-0.4c0.3-0.3,0.4-0.6,0.4-1s-0.2-0.8-0.4-1c-0.3-0.3-0.6-0.4-1-0.4   c-0.4,0-0.8,0.2-1,0.4c-0.3,0.3-0.4,0.6-0.4,1v0.1c-0.4-0.5-1.1-0.6-1.7-0.4c-0.6,0.2-0.9,0.8-0.9,1.4c-0.4-0.5-1.1-0.6-1.7-0.4   c-0.6,0.2-0.9,0.8-0.9,1.4c-0.4-0.5-1.1-0.6-1.7-0.4c-0.6,0.2-0.9,0.8-0.9,1.5c0,0,0-0.1-0.1-0.1c-0.3-0.3-0.6-0.4-1-0.4   c-0.4,0-0.8,0.2-1,0.4c-0.3,0.3-0.4,0.6-0.4,1s0.2,0.8,0.4,1C75.8,36.6,76.2,36.8,76.6,36.8z"></path><path d="M90,53.2c-0.3-0.3-0.6-0.4-1-0.4c-0.4,0-0.8,0.2-1,0.4c-0.1,0.1-0.2,0.2-0.2,0.3c-0.1-0.6-0.5-1.1-1.2-1.3   c-0.6-0.1-1.2,0.2-1.5,0.7c-0.1-0.6-0.5-1.1-1.2-1.2c-0.6-0.1-1.2,0.2-1.5,0.7c-0.1-0.6-0.5-1.1-1.2-1.2c-0.6-0.1-1.2,0.2-1.5,0.7   c0-0.3-0.2-0.6-0.4-0.9c-0.3-0.3-0.6-0.4-1-0.4c-0.4,0-0.8,0.2-1,0.4c-0.3,0.3-0.4,0.6-0.4,1c0,0.4,0.2,0.8,0.4,1   c0.3,0.3,0.6,0.4,1,0.4c0.4,0,0.8-0.2,1-0.4c0.1-0.1,0.2-0.2,0.2-0.3c0.1,0.6,0.5,1.1,1.2,1.3c0.6,0.1,1.2-0.2,1.5-0.7   c0.1,0.6,0.5,1.1,1.2,1.2c0.6,0.1,1.2-0.2,1.5-0.7c0.1,0.6,0.5,1.1,1.2,1.2c0.1,0,0.2,0,0.3,0c0.5,0,1-0.3,1.3-0.7   c0,0.3,0.2,0.6,0.4,0.9c0.3,0.3,0.6,0.4,1,0.4c0.4,0,0.8-0.2,1-0.4c0.3-0.3,0.4-0.6,0.4-1C90.4,53.9,90.3,53.5,90,53.2z"></path><path d="M78.1,73.2c-0.2,0-0.5,0.1-0.7,0.2c0.3-0.5,0.2-1.2-0.3-1.7s-1.1-0.5-1.7-0.3c0.3-0.5,0.2-1.2-0.3-1.7s-1.1-0.5-1.7-0.3   c0.3-0.5,0.2-1.2-0.3-1.7c-0.5-0.5-1.1-0.5-1.7-0.3c0.1-0.2,0.2-0.4,0.2-0.7c0-0.4-0.2-0.8-0.4-1c-0.3-0.3-0.6-0.4-1-0.4   c-0.4,0-0.8,0.2-1,0.4c-0.3,0.3-0.4,0.6-0.4,1c0,0.4,0.2,0.8,0.4,1c0.3,0.3,0.6,0.4,1,0.4c0.2,0,0.5-0.1,0.7-0.2   c-0.3,0.5-0.2,1.2,0.3,1.7c0.5,0.5,1.1,0.5,1.7,0.3c-0.3,0.5-0.2,1.2,0.3,1.7s1.1,0.5,1.7,0.3c-0.3,0.5-0.2,1.2,0.3,1.7   c0.3,0.3,0.7,0.4,1,0.4c0.2,0,0.5-0.1,0.7-0.2c-0.1,0.2-0.2,0.4-0.2,0.7c0,0.4,0.2,0.8,0.4,1c0.3,0.3,0.6,0.4,1,0.4   c0.4,0,0.8-0.2,1-0.4c0.3-0.3,0.4-0.6,0.4-1s-0.2-0.8-0.4-1C78.8,73.3,78.4,73.2,78.1,73.2z"></path></g></g><g id="SvgjsG1163" featurekey="nameFeature-0" transform="matrix(2.2631261732438923,0,0,2.2631261732438923,74.38744704718944,-22.540734613555273)" fill="#f2fcfc"><path d="M2.48 38.76 l0 -27.56 c0 -0.68 0.56 -1.24 1.24 -1.24 l13.96 0 c3.44 0 6.28 2.84 6.28 6.28 l0 17.48 c0 3.48 -2.84 6.28 -6.28 6.28 l-13.96 0 c-0.68 0 -1.24 -0.56 -1.24 -1.24 z M5.04 38.28 l12.64 0 c2.28 0 4.2 -1.88 4.2 -4.2 l0 -18.16 c0 -2.32 -1.92 -4.2 -4.2 -4.2 l-12.64 0 c-0.28 0 -0.48 0.2 -0.48 0.44 l0 25.64 c0 0.28 0.2 0.48 0.48 0.48 z M27.28 39.56 l0 -1.28 l9.28 0 c2.32 0 4.16 -1.88 4.16 -4.16 l0 -22.4 l-5.12 0 c-0.24 0 -0.44 -0.2 -0.44 -0.44 l0 -1.28 l7.64 0 l0 23.76 c0 3.44 -2.8 6.24 -6.24 6.24 l-8.84 0 c-0.24 0 -0.44 -0.2 -0.44 -0.44 z M62.480000000000004 10 c3.48 0 6.28 2.8 6.28 6.28 l0 4.16 c0 3.48 -2.8 6.28 -6.28 6.28 l-11.64 0 c-0.56 0 -1 -0.28 -1.12 -0.64 l0 13.48 c0 0.24 -0.2 0.44 -0.44 0.44 l-1.64 0 l0 -28.84 c0 -0.64 0.52 -1.16 1.16 -1.16 l13.68 0 z M66.68 20.8 l0 -4.88 c0 -2.32 -1.88 -4.2 -4.2 -4.2 l-12.32 0 c-0.24 0 -0.44 0.2 -0.44 0.44 l0 12.12 c0 0.4 0.32 0.72 0.72 0.72 l12.04 0 c2.32 0 4.2 -1.88 4.2 -4.2 z"></path></g></svg>